<?xml version="1.0" standalone="no"?>
<!DOCTYPE svg PUBLIC "-//W3C//DTD SVG 20010904//EN"
 "http://www.w3.org/TR/2001/REC-SVG-20010904/DTD/svg10.dtd">
<svg version="1.0" xmlns="http://www.w3.org/2000/svg"
 width="286.000000pt" height="248.000000pt" viewBox="0 0 286.000000 248.000000"
 preserveAspectRatio="xMidYMid meet">

<g transform="translate(0.000000,248.000000) scale(0.100000,-0.100000)"
fill="#000000" stroke="none">
<path d="M1065 2224 c-143 -24 -192 -44 -304 -119 -157 -106 -231 -184 -290
-308 -114 -238 -142 -333 -148 -509 -6 -156 10 -239 71 -365 120 -245 372
-443 661 -518 55 -14 102 -29 106 -33 3 -4 20 -64 37 -133 42 -172 92 -283 92
-204 0 56 131 159 248 195 78 24 207 27 278 5 59 -18 54 -17 54 -5 0 17 -102
40 -179 40 -131 0 -249 -44 -340 -126 -34 -31 -52 -41 -55 -32 -3 7 -7 69 -11
137 l-6 124 40 -7 c59 -9 222 12 303 39 296 100 452 398 452 865 1 432 -175
748 -498 894 -141 64 -343 88 -511 60z m375 -34 c223 -55 407 -201 508 -404
70 -141 101 -273 109 -461 14 -330 -68 -614 -224 -771 -92 -93 -210 -146 -368
-163 -89 -11 -253 -5 -275 9 -7 4 -23 57 -36 116 -54 250 -76 334 -86 334 -6
0 -8 -7 -5 -15 12 -30 97 -428 93 -432 -11 -11 -208 52 -292 93 -309 151 -503
408 -530 701 -21 228 107 573 282 759 128 135 315 234 446 234 32 0 58 4 58 9
0 5 8 12 18 15 36 11 220 -4 302 -24z m-200 -1820 c19 0 18 10 35 -223 3 -42
2 -77 -3 -77 -12 0 -38 78 -66 197 -24 103 -23 118 2 108 7 -3 22 -5 32 -5z"/>
<path d="M780 2010 c-88 -30 -146 -110 -108 -148 19 -19 74 -14 121 9 37 20
46 20 89 10 78 -21 109 2 88 65 -22 65 -104 93 -190 64z m120 -22 c29 -15 48
-33 54 -51 15 -43 -2 -53 -68 -38 -50 11 -58 10 -95 -8 -85 -44 -149 -16 -94
41 29 31 43 35 43 14 0 -19 30 -29 46 -15 19 16 17 38 -3 46 -14 6 -12 9 12
19 42 18 55 17 105 -8z"/>
<path d="M1498 2008 c-51 -30 -74 -88 -46 -116 18 -18 59 -15 103 8 49 25 65
25 121 0 39 -18 48 -19 72 -7 50 24 25 94 -45 123 -51 22 -161 18 -205 -8z
m130 6 c17 -5 20 -10 12 -19 -16 -20 17 -50 37 -34 7 7 12 18 9 26 -9 23 24
14 49 -13 52 -56 14 -88 -63 -54 -56 25 -73 25 -119 0 -21 -11 -50 -20 -65
-20 -23 0 -28 4 -28 25 0 29 41 73 74 80 12 2 30 6 41 8 11 3 22 5 25 6 3 0
15 -2 28 -5z"/>
<path d="M1355 1900 c-7 -22 -61 -54 -110 -64 -36 -8 -119 15 -147 41 -19 17
-20 17 -39 -7 -10 -14 -19 -28 -19 -32 0 -14 44 -48 62 -48 10 0 18 -6 18 -13
0 -7 13 -18 29 -24 24 -9 31 -8 35 3 4 10 14 12 31 8 14 -3 31 -1 39 6 11 8
20 9 35 0 17 -9 23 -7 33 10 9 13 24 20 45 20 25 0 35 6 46 28 13 27 12 31
-14 60 -34 38 -36 38 -44 12z m40 -40 c8 -25 -1 -40 -24 -40 -30 0 -43 21 -24
42 21 24 40 23 48 -2z m-289 -14 c15 -11 16 -17 7 -27 -16 -16 -43 -4 -43 21
0 24 9 25 36 6z m214 -31 c0 -21 -19 -28 -36 -14 -14 12 -14 14 2 26 19 14 34
9 34 -12z m-156 9 c19 -7 22 -54 3 -54 -21 0 -35 20 -30 41 6 21 6 21 27 13z
m83 -32 c-16 -15 -47 -11 -47 7 0 10 39 20 53 13 5 -2 2 -11 -6 -20z"/>
<path d="M1160 1710 c0 -11 4 -20 9 -20 5 0 7 9 4 20 -3 11 -7 20 -9 20 -2 0
-4 -9 -4 -20z"/>
<path d="M2347 1735 c-10 -7 -14 -16 -9 -19 5 -3 15 1 22 9 17 21 9 27 -13 10z"/>
<path d="M2387 1683 c-4 -3 -7 -21 -7 -39 0 -36 -8 -64 -19 -64 -5 0 -14 19
-21 43 -8 23 -15 35 -17 26 -6 -25 21 -94 37 -94 8 0 21 19 30 43 l16 43 19
-35 c30 -55 34 -33 6 28 -26 56 -32 62 -44 49z"/>
<path d="M2161 1662 c-39 -72 -12 -132 59 -132 29 0 43 6 54 22 34 48 6 97
-67 116 -31 9 -39 8 -46 -6z m87 -28 c44 -31 18 -97 -35 -88 -36 7 -53 22 -53
46 0 53 43 74 88 42z"/>
<path d="M2141 1416 c-1 -46 19 -117 30 -110 5 2 6 19 2 36 -5 24 -3 30 8 26
8 -2 15 -14 17 -26 2 -12 8 -22 14 -22 5 0 7 7 4 16 -3 9 -6 36 -6 60 0 24 -4
44 -10 44 -5 0 -10 -9 -10 -19 0 -34 -19 -33 -34 1 l-14 33 -1 -39z"/>
<path d="M2290 1426 c0 -34 -18 -42 -26 -11 -3 14 -10 25 -15 25 -13 0 -11
-21 6 -54 11 -20 12 -33 5 -40 -12 -12 -13 -39 -1 -32 14 9 51 93 51 116 0 11
-4 20 -10 20 -5 0 -10 -11 -10 -24z"/>
<path d="M2392 1242 c-7 -5 -15 -36 -18 -70 -5 -52 -4 -63 10 -68 9 -4 20 -3
24 1 4 4 1 10 -5 12 -22 8 -15 43 7 43 11 0 20 5 20 10 0 6 -9 10 -20 10 -30
0 -26 38 5 50 14 5 25 12 25 15 0 8 -33 6 -48 -3z"/>
<path d="M2450 1224 c-6 -15 -10 -48 -8 -73 3 -42 6 -46 31 -49 15 -2 27 1 27
7 0 6 -9 11 -21 11 -18 0 -20 5 -17 53 2 33 7 52 16 52 18 0 16 19 -2 23 -10
2 -20 -7 -26 -24z"/>
<path d="M2304 1232 c-15 -10 -29 -122 -15 -122 6 0 11 7 11 15 0 9 11 20 24
25 26 9 38 48 24 74 -10 17 -26 20 -44 8z m36 -36 c0 -8 -7 -19 -15 -26 -13
-10 -15 -9 -15 12 0 14 3 28 6 31 9 9 24 -2 24 -17z"/>
<path d="M2527 1231 c-17 -6 -17 -8 -4 -20 11 -9 14 -25 11 -57 -2 -26 0 -44
6 -44 5 0 10 23 10 50 0 36 4 52 15 56 8 4 15 10 15 15 0 11 -27 11 -53 0z"/>
<path d="M2133 1223 c-9 -3 -13 -26 -13 -64 0 -39 4 -58 10 -54 6 4 10 23 9
44 -2 20 1 42 5 49 16 27 26 9 26 -48 0 -33 4 -60 10 -60 11 0 14 98 4 124 -6
16 -27 19 -51 9z"/>
<path d="M2217 1223 c-4 -3 -7 -28 -7 -55 0 -35 4 -50 15 -55 21 -8 33 6 15
17 -13 8 -12 12 5 24 18 14 18 15 3 16 -19 0 -26 40 -8 40 6 0 10 5 10 10 0
11 -23 14 -33 3z"/>
<path d="M2597 1160 c-32 -62 -33 -69 -7 -45 20 18 21 18 35 -1 13 -18 14 -16
15 26 0 72 -13 78 -43 20z"/>
<path d="M2650 1165 c0 -45 12 -60 24 -29 3 8 10 13 15 9 6 -3 8 -12 4 -20 -3
-8 0 -15 5 -15 12 0 28 87 18 98 -4 3 -9 -4 -13 -16 -7 -27 -33 -29 -33 -2 0
11 -4 20 -10 20 -5 0 -10 -20 -10 -45z"/>
<path d="M2754 1183 c-3 -16 -7 -34 -10 -41 -2 -7 1 -24 6 -38 9 -22 13 -24
25 -14 18 15 20 46 4 56 -6 3 -9 19 -5 35 7 37 -12 38 -20 2z m21 -63 c3 -5 1
-10 -4 -10 -6 0 -11 5 -11 10 0 6 2 10 4 10 3 0 8 -4 11 -10z"/>
</g>
</svg>
